# xmcd
#
# Track frame offsets: 
#        150
#        9272
#        21752
#        30754
#        41889
#        52988
#        62275
#        76798
#        89953
#
# Disc length: 1402 seconds
#
# Revision: 0
# Processed by: cddbd v1.5.2PL0 Copyright (c) Steve Scherf et al.
# Submitted via: ExactAudioCopyFreeDBPlugin 1.0
#
DISCID=5c057809
DTITLE=Porter Wagoner - The Silent Kind
DYEAR=1972
DGENRE=Country
TTITLE0=The Silent Kind
TTITLE1=Roses Out Of Season
TTITLE2=Uncle Pen
TTITLE3=Fairchild
TTITLE4=Ya'll Come (You All Come)
TTITLE5=One More Dime
TTITLE6=The Cold Hard Facts Of Life
TTITLE7=Malinda
TTITLE8=House Of Shame
EXTD=
EXTT0=
EXTT1=
EXTT2=
EXTT3=
EXTT4=
EXTT5=
EXTT6=
EXTT7=
EXTT8=
PLAYORDER=
